# xmcd
# 
# Track frame offsets:
#     150
#     13988
#     27812
#     41620
#     55413
#     69108
#     82215
#     94363
#     107545
#     122074
#     133985
#     146168
#     158616
#     172433
#     186678
#     199372
#     212112
#     224319
#     235610
#     247737
#     261331
#     273505
#     285304
#     297571
#     311791
# 
# Disc length: 4351
# 
# Revision: 5
# Processed by: cddbd v1.5.2PL0 Copyright (c) Steve Scherf et al.
# Submitted via: fre:ac v1.0.17
# 
DISCID=9210fd19
DTITLE=Various Artist - Essential Chicago Blues
DYEAR=2010
DGENRE=Blues
TTITLE0=Sonny Boy Williamson - Eyesight To The Blind
TTITLE1=Willie Dixon - Walkin' The Blues
TTITLE2=Muddy Waters - I'm Ready
TTITLE3=Otis Rush - Groaning The Blues
TTITLE4=Buddy Guy and his Band - Sit And Cry (The Blues)
TTITLE5=Junior Wells - Junior's Wail
TTITLE6=Otis Spann - It Must Have Been The Devil
TTITLE7=Howlin' Wolf - Moanin' At Midnight
TTITLE8=Bo Diddley - Say Man
TTITLE9=Sunnyland Slim - Shake It Baby
TTITLE10=Eddie Boyd - Five Long Years
TTITLE11=Magic Sam - Easy Baby
TTITLE12=Little Walter and his Combo - You're So Fine
TTITLE13=Willie Mabon - I Don't Know
TTITLE14=Jimmy Rogers - Walking By Myself
TTITLE15=Jimmy Reed - The Sunb Is Shining
TTITLE16=Elmore James - Make My Dreams Come True
TTITLE17=Freddy King - Country Boy
TTITLE18=Muddy Waters - Trouble No More
TTITLE19=Bo Diddley - I'm A Man
TTITLE20=Howlin' Wolf - How Many More Years?
TTITLE21=Buddy Guy - Try To Quit You Baby
TTITLE22=Otis Rush - Double Trouble
TTITLE23=Junior Wells - I Could Cry
TTITLE24=Floyd Jones - On The Road Again
EXTD=
EXTT0=
EXTT1=
EXTT2=
EXTT3=
EXTT4=
EXTT5=
EXTT6=
EXTT7=
EXTT8=
EXTT9=
EXTT10=
EXTT11=
EXTT12=
EXTT13=
EXTT14=
EXTT15=
EXTT16=
EXTT17=
EXTT18=
EXTT19=
EXTT20=
EXTT21=
EXTT22=
EXTT23=
EXTT24=
PLAYORDER=
